<svg xmlns="http://www.w3.org/2000/svg" width="133" height="34" viewBox="0 0 133 34" fill="none">
  <g clip-path="url(#clip0_219_3098)">
    <path fill-rule="evenodd" clip-rule="evenodd" d="M130.251 0.5H102.128C100.783 0.5 99.6409 1.56386 99.6409 2.87443V31.124C99.6409 32.4361 100.39 33.5 101.736 33.5H129.858C131.205 33.5 132.641 32.4361 132.641 31.124V2.87443C132.641 1.56386 131.597 0.5 130.251 0.5Z" fill="white"/>
    <path fill-rule="evenodd" clip-rule="evenodd" d="M130.251 0.5H102.128C100.783 0.5 99.6409 1.56386 99.6409 2.87443V31.124C99.6409 32.4361 100.39 33.5 101.736 33.5H129.858C131.205 33.5 132.641 32.4361 132.641 31.124V2.87443C132.641 1.56386 131.597 0.5 130.251 0.5ZM112.212 13.0714H116.655V15.3359H116.703C117.381 14.1149 119.381 12.875 121.855 12.875C126.602 12.875 127.927 15.3956 127.927 20.0643V28.7857H123.212V20.9239C123.212 18.8339 122.378 17 120.426 17C118.056 17 116.927 18.6044 116.927 21.2381V28.7857H112.212V13.0714ZM104.355 28.7857H109.069V13.0714H104.355V28.7857ZM109.659 7.57143C109.659 7.9583 109.583 8.34142 109.435 8.69891C109.287 9.05639 109.07 9.38124 108.797 9.6549C108.523 9.92856 108.199 10.1457 107.841 10.2938C107.484 10.442 107.101 10.5183 106.714 10.5184C106.327 10.5185 105.944 10.4424 105.586 10.2944C105.229 10.1465 104.904 9.92953 104.631 9.65601C104.357 9.3825 104.14 9.05777 103.992 8.70036C103.844 8.34295 103.767 7.95987 103.767 7.573C103.767 6.79186 104.078 6.04269 104.63 5.49024C105.182 4.9378 105.931 4.62733 106.712 4.62713C107.493 4.62692 108.243 4.93699 108.795 5.48913C109.348 6.04128 109.658 6.79029 109.659 7.57143Z" fill="#0A66C2"/>
    <path d="M94.9265 28.7858H90.5265V26.9142H90.4794C89.5004 28.0488 87.8001 28.9822 84.9181 28.9822C80.9895 28.9822 77.6063 26.0264 77.6063 20.9459C77.6063 16.1059 80.9408 12.8751 85.0658 12.8751C87.6194 12.8751 89.205 13.7834 90.1651 14.9431H90.2123V5.21436H94.9265V28.7858ZM86.2507 16.4108C83.5557 16.4108 82.0408 18.3326 82.0408 20.8878C82.0408 23.4445 83.5557 25.4465 86.2507 25.4465C88.9488 25.4465 90.5265 23.4964 90.5265 20.8878C90.5265 18.2069 88.9488 16.4108 86.2507 16.4108ZM75.5367 26.2542C74.4241 27.6952 72.133 28.9822 68.4338 28.9822C63.4995 28.9822 60.3567 25.7136 60.3567 20.5798C60.3567 16.0179 63.2025 12.8751 68.5721 12.8751C73.2094 12.8751 76.0694 15.9205 76.0694 21.2775C76.0694 21.8118 75.983 22.3429 75.983 22.3429H64.8038L64.8305 22.8285C65.1401 24.1831 66.1631 25.8394 68.5108 25.8394C70.56 25.8394 71.9648 24.7378 72.5997 23.8751L75.5367 26.2542ZM71.5327 19.3556C71.5641 17.6994 70.3478 16.0179 68.4307 16.0179C66.149 16.0179 64.9311 17.7999 64.8038 19.3572H71.5327V19.3556Z" fill="white"/>
    <path d="M60.3551 13.0714H54.8551L49.3551 19.3572V5.2143H44.6409V28.7857H49.3551V20.9286L55.1679 28.7857H60.7339L54.0694 20.1947L60.3551 13.0714ZM25.7837 13.0714H30.2262V15.3359H30.2749C30.9522 14.1149 32.9526 12.875 35.426 12.875C40.1733 12.875 41.498 15.8874 41.498 20.0643V28.7857H36.7837V20.9239C36.7837 18.6107 35.9493 17 33.9976 17C31.6279 17 30.498 18.8763 30.498 21.2381V28.7857H25.7837V13.0714ZM17.9266 28.7857H22.6409V13.0714H17.9266V28.7857ZM20.2853 10.4C20.6623 10.4089 21.0372 10.3423 21.388 10.2042C21.7389 10.0661 22.0586 9.85922 22.3284 9.59576C22.5981 9.33229 22.8125 9.01756 22.9588 8.67005C23.1051 8.32255 23.1805 7.94929 23.1805 7.57222C23.1805 7.19516 23.1051 6.8219 22.9588 6.4744C22.8125 6.12689 22.5981 5.81215 22.3284 5.54869C22.0586 5.28523 21.7389 5.07835 21.388 4.94024C21.0372 4.80212 20.6623 4.73555 20.2853 4.74444C19.5469 4.76185 18.8445 5.06742 18.3284 5.59583C17.8123 6.12425 17.5234 6.83359 17.5234 7.57222C17.5234 8.31086 17.8123 9.0202 18.3284 9.54861C18.8445 10.077 19.5469 10.3826 20.2853 10.4ZM5.35515 5.2143H0.640869V28.7857H14.7837V24.0714H5.35515V5.2143Z" fill="white"/>
  </g>
  <defs>
    <clipPath id="clip0_219_3098">
      <rect width="132" height="33" fill="white" transform="translate(0.640869 0.5)"/>
    </clipPath>
  </defs>
</svg>