<svg xmlns="http://www.w3.org/2000/svg" width="208" height="52" viewBox="0 0 208 52" fill="none">
  <path d="M48.9114 31.9789C48.9114 33.263 49.1932 34.2488 49.5616 34.8452C50.0446 35.6264 50.7649 35.9574 51.4994 35.9574C52.4466 35.9574 53.3132 35.7223 54.9831 33.4127C56.321 31.5614 57.8974 28.9629 58.9581 27.3339L60.7544 24.574C62.0022 22.6572 63.4464 20.5265 65.1024 19.0822C66.4543 17.9034 67.9126 17.2485 69.3802 17.2485C71.8442 17.2485 74.1913 18.6764 75.9876 21.3545C77.9534 24.2874 78.9077 27.9817 78.9077 31.7941C78.9077 34.0605 78.461 35.7258 77.7008 37.0415C76.9664 38.3138 75.535 39.585 73.1271 39.585V35.9574C75.1889 35.9574 75.7034 34.0629 75.7034 31.8947C75.7034 28.805 74.983 25.3762 73.3961 22.9262C72.2699 21.1884 70.8105 20.1265 69.2048 20.1265C67.4682 20.1265 66.0707 21.4363 64.5001 23.7717C63.6651 25.0125 62.8079 26.5246 61.8455 28.2308L60.7859 30.1078C58.6575 33.8816 58.1184 34.7412 57.0542 36.1597C55.189 38.6436 53.5962 39.585 51.4994 39.585C49.0119 39.585 47.439 38.5079 46.4649 36.8848C45.6696 35.5621 45.2791 33.8266 45.2791 31.8491L48.9114 31.9789Z" fill="#0081FB"/>
  <path d="M48.1428 21.6106C49.8081 19.0436 52.2113 17.2485 54.9677 17.2485C56.564 17.2485 58.151 17.721 59.8081 19.074C61.6207 20.5534 63.5526 22.9894 65.9629 27.0041L66.8271 28.4448C68.9134 31.9204 70.1004 33.7085 70.795 34.5517C71.6885 35.6346 72.3142 35.9574 73.1269 35.9574C75.1887 35.9574 75.7032 34.0629 75.7032 31.8947L78.9075 31.7941C78.9075 34.0605 78.4608 35.7258 77.7006 37.0415C76.9662 38.3138 75.5348 39.585 73.1269 39.585C71.63 39.585 70.3039 39.2599 68.8374 37.8764C67.71 36.8146 66.3921 34.9283 65.3782 33.2326L62.3621 28.1946C60.8489 25.6662 59.4607 23.7811 58.6573 22.9274C57.7931 22.0094 56.6821 20.9007 54.9093 20.9007C53.4743 20.9007 52.2558 21.9076 51.236 23.4478L48.1428 21.6106Z" fill="url(#paint0_linear_219_3011)"/>
  <path d="M54.9095 20.9007C53.4745 20.9007 52.256 21.9076 51.2362 23.4478C49.7943 25.6241 48.9114 28.8658 48.9114 31.9789C48.9114 33.263 49.1932 34.2488 49.5616 34.8452L46.4649 36.8847C45.6696 35.5621 45.2791 33.8266 45.2791 31.8491C45.2791 28.253 46.2661 24.505 48.143 21.6106C49.8083 19.0436 52.2115 17.2485 54.9679 17.2485L54.9095 20.9007Z" fill="url(#paint1_linear_219_3011)"/>
  <path d="M85.4673 16.833H89.6691L96.8133 29.7578L103.959 16.833H108.069V38.0702H104.642V21.7938L98.3757 33.065H95.1597L88.8949 21.7938V38.0702H85.4673V16.833ZM118.809 24.7513C116.351 24.7513 114.871 26.6014 114.516 28.8924H122.859C122.687 26.5324 121.326 24.7513 118.809 24.7513ZM111.118 30.1975C111.118 25.377 114.233 21.8687 118.869 21.8687C123.429 21.8687 126.151 25.3326 126.151 30.4547V31.3962H114.516C114.929 33.8882 116.583 35.5676 119.249 35.5676C121.376 35.5676 122.706 34.9185 123.967 33.7315L125.788 35.9617C124.072 37.5393 121.89 38.4491 119.128 38.4491C114.109 38.4491 111.118 34.7899 111.118 30.1975ZM130.307 25.0554H127.152V22.2487H130.307V17.6072H133.615V22.2487H138.408V25.0554H133.615V32.1692C133.615 34.5981 134.391 35.4612 136.3 35.4612C137.171 35.4612 137.67 35.3863 138.408 35.2635V38.0398C137.489 38.2994 136.612 38.4187 135.662 38.4187C132.092 38.4187 130.307 36.4681 130.307 32.5633V25.0554ZM152.334 27.7849C151.67 26.1079 150.188 24.873 148.011 24.873C145.181 24.873 143.369 26.8809 143.369 30.1519C143.369 33.3409 145.037 35.446 147.875 35.446C150.106 35.446 151.699 34.1479 152.334 32.5329V27.7849ZM155.641 38.0702H152.395V35.8553C151.487 37.1592 149.836 38.4491 147.162 38.4491C142.86 38.4491 139.986 34.8484 139.986 30.1519C139.986 25.4109 142.929 21.8687 147.344 21.8687C149.526 21.8687 151.238 22.7411 152.395 24.2812V22.2487H155.641V38.0702Z" fill="white"/>
  <defs>
    <linearGradient id="paint0_linear_219_3011" x1="52.4125" y1="30.9311" x2="75.5676" y2="32.1005" gradientUnits="userSpaceOnUse">
      <stop stop-color="#0064E1"/>
      <stop offset="0.4" stop-color="#0064E1"/>
      <stop offset="0.83" stop-color="#0073EE"/>
      <stop offset="1" stop-color="#0082FB"/>
    </linearGradient>
    <linearGradient id="paint1_linear_219_3011" x1="50.5416" y1="33.5039" x2="50.5416" y2="24.9669" gradientUnits="userSpaceOnUse">
      <stop stop-color="#0082FB"/>
      <stop offset="1" stop-color="#0064E0"/>
    </linearGradient>
  </defs>
</svg>