<svg xmlns="http://www.w3.org/2000/svg" width="150" height="37" viewBox="0 0 150 37" fill="none">
  <g clip-path="url(#clip0_219_3110)">
    <path d="M59.1858 13.16H63.8999V27.9673H59.1858V13.16Z" fill="white"/>
    <mask id="mask0_219_3110" style="mask-type:luminance" maskUnits="userSpaceOnUse" x="0" y="0" width="150" height="37">
      <path d="M0.390869 0.0132103H149.641V36.4868H0.390869V0.0132103Z" fill="white"/>
    </mask>
    <g mask="url(#mask0_219_3110)">
      <path d="M64.8843 13.16H69.4248V15.1845H69.5115C70.6105 13.5938 72.0276 12.7263 74.081 12.7263C77.32 12.7263 79.2288 15.0399 79.2288 18.3368V27.9673H74.5148V19.2912C74.5148 17.7294 73.7339 16.6593 72.2012 16.6593C70.6395 16.6593 69.5983 17.9608 69.5983 19.7828V27.9673H64.8843V13.16Z" fill="white"/>
      <path d="M64.3705 9.19879C64.3705 7.63699 63.1045 6.37106 61.5428 6.37106C59.9812 6.37106 58.7151 7.63699 58.7151 9.19879C58.7151 10.7604 59.9812 12.0264 61.5428 12.0264C63.1045 12.0264 64.3705 10.7604 64.3705 9.19879Z" fill="white"/>
      <path d="M112.383 12.9463C112.249 12.9342 112.094 12.9288 111.914 12.9288C110.121 12.9288 108.906 13.7096 107.865 15.4738H107.778V13.1602H103.267V27.9673H107.981V21.3157C107.981 18.2336 109.688 16.8055 112.383 17.0547V12.9463Z" fill="white"/>
      <path d="M135.517 18.6261C133.637 18.2791 131.96 18.1346 131.96 17.0934C131.96 16.1679 132.856 15.7342 134.013 15.7342C135.314 15.7342 136.211 16.139 136.384 17.4694H140.723C140.491 14.5485 138.235 12.7264 134.042 12.7264C130.543 12.7264 127.65 14.346 127.65 17.4694C127.65 20.9397 130.398 21.6338 132.972 22.0677C134.938 22.4148 136.731 22.5594 136.731 23.8896C136.731 24.8441 135.835 25.3646 134.418 25.3646C132.996 25.3646 132.056 24.7631 131.768 23.5427H127.276C127.606 26.5867 130.278 28.4302 134.447 28.4302C138.322 28.4302 141.185 26.7528 141.185 23.5138C141.185 19.7251 138.12 19.06 135.517 18.6261Z" fill="white"/>
      <path d="M119.696 16.0812C121.229 16.0812 122.328 17.2091 122.501 18.9734H116.659C116.977 17.2091 117.903 16.0812 119.696 16.0812ZM119.956 25.0175C118.019 25.0175 116.92 23.774 116.63 21.7785H127.273C127.302 18.7709 126.435 16.1969 124.67 14.5774C123.398 13.4206 121.72 12.7265 119.609 12.7265C115.098 12.7265 112.003 16.1101 112.003 20.535C112.003 25.0175 115.011 28.4014 119.898 28.4014C121.778 28.4014 123.282 27.9097 124.526 27.0421C125.827 26.1455 126.695 24.8731 127.013 23.5428H122.414C122.009 24.4682 121.2 25.0175 119.956 25.0175Z" fill="white"/>
      <path d="M149.488 24.476C149.269 24.4846 148.976 24.4973 148.706 24.4973C147.694 24.4973 147.058 24.2079 147.058 23.0511V16.1102H149.488V13.1604H147.058V8.47528H142.46V13.1604H141.013V16.1102H142.46V24.0634C142.46 27.2447 144.426 28.1411 147.174 28.1411C148.222 28.1411 149.014 28.0626 149.488 27.9703V24.476Z" fill="white"/>
      <path d="M87.6471 24.4827C87.459 24.49 87.2419 24.4973 87.0391 24.4973C86.0271 24.4973 85.3907 24.2079 85.3907 23.0511V16.1102H87.6471V13.1604H85.3907V8.47528H80.7924V13.1604H79.259V16.1102H80.7924V24.0634C80.7924 27.2447 82.7589 28.1411 85.5064 28.1411C86.436 28.1411 87.1639 28.0793 87.6471 28.0009V24.4827Z" fill="white"/>
      <path d="M97.9151 18.9734C97.7416 17.2092 96.6425 16.0812 95.1097 16.0812C93.3167 16.0812 92.3913 17.2092 92.0731 18.9734H97.9151ZM87.417 20.535C87.417 16.1102 90.5114 12.7266 95.0231 12.7266C97.1341 12.7266 98.8116 13.4206 100.084 14.5774C101.848 16.197 102.716 18.7709 102.687 21.7786H92.0443C92.3333 23.774 93.4324 25.0176 95.3701 25.0176C96.6136 25.0176 97.4235 24.4682 97.8282 23.5428H102.427C102.108 24.8731 101.241 26.1455 99.9394 27.0422C98.6959 27.9097 97.1921 28.4014 95.3122 28.4014C90.4246 28.4014 87.417 25.0176 87.417 20.535Z" fill="white"/>
      <path d="M50.9991 17.0065C52.8501 17.0065 53.8912 15.9075 53.8912 14.2589C53.8912 12.6106 52.821 11.5984 50.9991 11.5984H47.3838V17.0065H50.9991ZM42.6113 7.28923H50.7975C53.3134 7.28923 55.1644 7.98325 56.4369 9.19797C57.7673 10.4414 58.5192 12.2057 58.5192 14.2879C58.5192 18.25 55.7717 21.0554 51.5204 21.0554H47.3838V27.9673H42.6113V7.28923Z" fill="white"/>
      <path d="M36.1401 18.2499C36.1401 28.0794 28.1716 36.0479 18.3421 36.0479C8.51265 36.0479 0.544189 28.0794 0.544189 18.2499C0.544189 8.42026 8.51265 0.451946 18.3421 0.451946C28.1716 0.451946 36.1401 8.42026 36.1401 18.2499Z" fill="white"/>
      <path d="M18.3421 0.451946C8.51265 0.451946 0.544189 8.42041 0.544189 18.2499C0.544189 25.79 5.23542 32.2358 11.8561 34.8291C11.7006 33.4209 11.5599 31.2552 11.9178 29.7179C12.2413 28.3289 14.0048 20.8712 14.0048 20.8712C14.0048 20.8712 13.4725 19.805 13.4725 18.2287C13.4725 15.7539 14.9069 13.9063 16.693 13.9063C18.2114 13.9063 18.9448 15.0464 18.9448 16.4134C18.9448 17.9405 17.9726 20.2236 17.4709 22.3393C17.0516 24.1108 18.3592 25.5554 20.1064 25.5554C23.2697 25.5554 25.7013 22.22 25.7013 17.4053C25.7013 13.1439 22.6393 10.1644 18.267 10.1644C13.2029 10.1644 10.2304 13.9628 10.2304 17.8882C10.2304 19.4179 10.8197 21.0582 11.555 21.9499C11.7004 22.1262 11.7217 22.2805 11.6784 22.4604C11.5433 23.0225 11.2431 24.2314 11.1841 24.4789C11.1065 24.8046 10.9262 24.8738 10.5889 24.7168C8.36603 23.6821 6.97624 20.4322 6.97624 17.8218C6.97624 12.2075 11.0554 7.05148 18.7361 7.05148C24.9102 7.05148 29.7082 11.4511 29.7082 17.3308C29.7082 23.4646 25.8407 28.4011 20.4726 28.4011C18.6691 28.4011 16.9737 27.4642 16.3933 26.3574C16.3933 26.3574 15.5008 29.7556 15.2845 30.5883C14.8827 32.1342 13.798 34.072 13.0724 35.2542C14.7377 35.7698 16.5074 36.0479 18.3421 36.0479C28.1718 36.0479 36.1402 28.0794 36.1402 18.2499C36.1402 8.42041 28.1718 0.451946 18.3421 0.451946Z" fill="#E60023"/>
    </g>
  </g>
  <defs>
    <clipPath id="clip0_219_3110">
      <rect width="149.25" height="36.4736" fill="white" transform="translate(0.390869 0.0131836)"/>
    </clipPath>
  </defs>
</svg>