<svg xmlns="http://www.w3.org/2000/svg" width="207" height="52" viewBox="0 0 207 52" fill="none">
  <path d="M50.9623 34.3476L51.0865 34.698C51.0668 34.6579 51.0214 34.5352 50.9623 34.3476ZM45.1984 31.8554C45.4164 29.9732 46.1565 28.9189 47.5514 27.8382C49.5471 26.3745 52.04 27.2024 52.04 27.2024V22.2899C52.6461 22.2744 53.2524 22.3121 53.8519 22.4027V28.7229C53.8519 28.7229 51.3597 27.8949 49.3639 29.3586C47.9699 30.4393 47.2282 31.4944 47.011 33.3766C47.0042 34.3998 47.1881 35.7363 48.035 36.892C47.8256 36.78 47.6122 36.6523 47.3947 36.509C45.5291 35.202 45.1893 33.2418 45.1984 31.8554ZM64.1453 13.2081C62.7725 11.6385 62.2533 10.0537 62.0656 8.94043H63.7927C63.7927 8.94043 63.4483 11.8595 65.9579 14.7301L65.9927 14.7687C65.3164 14.3248 64.6961 13.8008 64.1453 13.2081Z" fill="#EE1D52"/>
  <path d="M72.4639 17.6565V23.8495C72.4639 23.8495 70.26 23.7602 68.6291 23.3265C66.3518 22.7211 64.8881 21.7932 64.8881 21.7932C64.8881 21.7932 63.877 21.1303 63.7953 21.0848V33.8789C63.7953 34.5903 63.6084 36.3688 63.0385 37.8529C62.2945 39.7934 61.1464 41.0671 60.9353 41.3267C60.9353 41.3267 59.539 43.0492 57.0755 44.2087C54.855 45.2546 52.9054 45.2281 52.3227 45.2546C52.3227 45.2546 48.9526 45.3938 45.92 43.3368C45.264 42.8842 44.6518 42.3711 44.0916 41.8042L44.1067 41.8148C47.14 43.8719 50.5094 43.7326 50.5094 43.7326C51.0929 43.7061 53.0424 43.7326 55.2622 42.6867C57.7241 41.5273 59.122 39.8047 59.122 39.8047C59.3308 39.5451 60.4842 38.2714 61.2251 36.3302C61.7935 34.8468 61.982 33.0683 61.982 32.3561V19.5629C62.0637 19.6091 63.0748 20.272 63.0748 20.272C63.0748 20.272 64.5385 21.2014 66.8158 21.8053C68.4475 22.2382 70.6506 22.3283 70.6506 22.3283V17.4756C71.4043 17.6519 72.0469 17.7004 72.4639 17.6565Z" fill="#EE1D52"/>
  <path d="M70.1723 17.3729V22.2662C70.1723 22.2662 67.9665 22.1754 66.3328 21.7388C64.0528 21.1281 62.5873 20.1924 62.5873 20.1924C62.5873 20.1924 61.5749 19.5238 61.4931 19.4772V32.3772C61.4931 33.0955 61.306 34.8891 60.7354 36.3851C59.9905 38.3429 58.841 39.6275 58.6296 39.8893C58.6296 39.8893 57.2316 41.6265 54.7651 42.7958C52.5426 43.8507 50.5907 43.824 50.0065 43.8507C50.0065 43.8507 46.633 43.9911 43.596 41.9166L43.5808 41.9059C43.2603 41.5794 42.9585 41.2349 42.6768 40.8739C41.7077 39.6313 41.1136 38.1636 40.9643 37.7445C40.9639 37.7428 40.9639 37.7409 40.9643 37.7392C40.7234 37.0103 40.2187 35.2624 40.2877 33.5687C40.4097 30.5797 41.4099 28.7463 41.6743 28.2861C42.375 27.0333 43.2862 25.9125 44.3674 24.9735C45.3208 24.1625 46.4021 23.5175 47.5665 23.0653C48.2926 22.7614 49.0492 22.5375 49.8231 22.3975C50.3892 22.2955 50.9622 22.2381 51.5371 22.2257V27.1771C51.5371 27.1771 49.0411 26.342 47.0429 27.8182C45.6464 28.9082 44.9054 29.9714 44.6871 31.8696C44.678 33.268 45.0183 35.2448 46.8846 36.5645C47.1018 36.7095 47.3155 36.8383 47.5256 36.9507C47.8519 37.3946 48.2485 37.7814 48.6994 38.0956C50.5225 39.3085 52.0501 39.3932 54.0036 38.6055C55.3077 38.0857 56.2844 36.8988 56.7474 35.5829C57.033 34.7617 57.0292 33.9343 57.0292 33.0802V8.76318H61.5757C61.7636 9.88595 62.2834 11.4842 63.658 13.0673C64.2094 13.665 64.8304 14.1934 65.5076 14.6411C65.7077 14.8587 66.7306 15.9333 68.0438 16.5943C68.7212 16.9354 69.4355 17.1966 70.1723 17.3729Z" fill="white"/>
  <path d="M48.0265 22.7781C46.8686 23.2213 45.7934 23.8534 44.8453 24.6484C43.7701 25.5708 42.8645 26.6717 42.1689 27.9019C41.9059 28.3508 40.9113 30.15 40.79 33.0796C40.7214 34.7397 41.2232 36.4529 41.4629 37.1673C41.4624 37.1691 41.4624 37.1708 41.4629 37.1726C41.6136 37.5795 42.202 39.0182 43.1658 40.2398C43.4459 40.5936 43.746 40.9313 44.0647 41.2513C43.0431 40.5498 42.132 39.7017 41.3611 38.7346C40.4057 37.5279 39.8165 36.1035 39.6628 35.6831L39.659 35.6741V35.6681C39.4194 34.9559 38.916 33.2412 38.9861 31.5789C39.1074 28.6493 40.102 26.8523 40.365 26.4012C41.0605 25.1709 41.9661 24.0699 43.0414 23.1476C43.9894 22.3524 45.0646 21.7203 46.2227 21.2773C46.9447 20.9795 47.697 20.76 48.4666 20.6227C49.6261 20.4214 50.8105 20.404 51.9756 20.5711V21.9551C51.4041 21.9655 50.8342 22.0201 50.2712 22.1182C49.5012 22.2571 48.7486 22.4783 48.0265 22.7781Z" fill="#69C9D0"/>
  <path d="M61.7813 8.96426H57.3448V32.7429C57.3448 33.578 57.3485 34.3848 57.0698 35.1901C56.6217 36.4753 55.6686 37.6358 54.3983 38.1507C52.4914 38.9239 51.0008 38.8381 49.2225 37.6522C48.7825 37.3449 48.3955 36.9667 48.0771 36.5327C49.5922 37.3484 50.9483 37.3343 52.6282 36.6536C53.8911 36.1349 54.8523 34.9744 55.2959 33.6885C55.5754 32.8854 55.5717 32.0764 55.5717 31.242V7.46191H61.6977C61.6977 7.46191 61.6282 8.05375 61.7813 8.96426ZM70.1705 16.0603V17.3828C69.4513 17.2105 68.7541 16.9551 68.0928 16.6215C66.8114 15.9752 65.8132 14.9244 65.618 14.7117C65.8444 14.8618 66.0794 14.9982 66.3219 15.1199C67.8799 15.9051 69.4104 16.1402 70.1705 16.0603Z" fill="#69C9D0"/>
  <path d="M137.76 28.3035C137.76 28.6527 137.812 28.9999 137.914 29.3339C137.92 29.3575 137.927 29.3808 137.935 29.4036C138.181 30.1936 138.675 30.8845 139.343 31.3751C140.012 31.8656 140.82 32.1302 141.65 32.13V36.0522C139.735 36.0522 138.363 36.1189 136.276 34.8886C133.892 33.4851 132.553 30.9188 132.553 28.2537C132.553 25.5066 134.051 22.7526 136.59 21.4266C138.431 20.4644 139.831 20.4575 141.65 20.4575V24.3775C140.619 24.3777 139.629 24.7861 138.9 25.513C138.17 26.2399 137.76 27.2257 137.76 28.2537V28.3035Z" fill="#69C9D0"/>
  <path d="M145.537 28.3035C145.537 28.6527 145.486 29 145.383 29.3339C145.378 29.3576 145.37 29.3809 145.362 29.4036C145.116 30.1938 144.623 30.8848 143.954 31.3754C143.286 31.866 142.477 32.1304 141.647 32.13V36.0522C143.563 36.0522 144.934 36.1189 147.021 34.8886C149.404 33.4851 150.744 30.9188 150.744 28.2537C150.744 25.5066 149.246 22.7526 146.708 21.4266C144.867 20.4644 143.466 20.4575 141.647 20.4575V24.3775C142.679 24.3775 143.668 24.7858 144.398 25.5127C145.127 26.2397 145.537 27.2256 145.538 28.2537L145.537 28.3035Z" fill="#EE1D52"/>
  <path d="M81.8669 17.8569H96.1948L94.8706 21.6104H91.1245V35.9736H86.5091V21.6104H81.8669V17.8569ZM119.841 17.8569V21.6104H124.483V35.9736H129.095V21.6104H132.841L134.168 17.8569H119.841ZM99.3117 22.1345C99.7531 22.1345 100.185 22.0098 100.552 21.7764C100.919 21.5429 101.205 21.2111 101.373 20.8229C101.542 20.4347 101.587 20.0075 101.5 19.5954C101.414 19.1833 101.202 18.8047 100.89 18.5076C100.578 18.2105 100.18 18.0081 99.7471 17.9261C99.3142 17.8442 98.8655 17.8862 98.4577 18.047C98.0499 18.2078 97.7014 18.4802 97.4562 18.8295C97.211 19.1789 97.0801 19.5897 97.0801 20.0099C97.0801 20.5734 97.3152 21.1137 97.7337 21.5122C98.1522 21.9106 98.7199 22.1345 99.3117 22.1345ZM97.0763 35.9736H101.6V23.636H97.0763V35.9736ZM117.871 22.0282H112.582L108.023 26.3727V17.8708H103.53L103.515 35.9736H108.053V31.2565L109.467 30.0388L113.87 35.9736H118.721L112.342 27.2941L117.871 22.0282ZM161.261 27.2941L166.792 22.0282H161.503L156.944 26.3727V17.8708H152.45L152.436 35.9736H156.974V31.2565L158.391 30.0388L162.795 35.9736H167.641L161.261 27.2941ZM149.632 28.6435C149.632 32.7347 146.102 36.0515 141.746 36.0515C137.391 36.0515 133.861 32.7347 133.861 28.6435C133.861 24.5523 137.392 21.2356 141.746 21.2356C146.101 21.2356 149.634 24.5531 149.634 28.6435H149.632ZM145.615 28.6435C145.615 27.9151 145.388 27.2031 144.963 26.5974C144.538 25.9918 143.934 25.5197 143.227 25.241C142.52 24.9623 141.742 24.8893 140.992 25.0314C140.241 25.1735 139.552 25.5243 139.011 26.0393C138.47 26.5544 138.101 27.2106 137.952 27.925C137.803 28.6394 137.88 29.3799 138.172 30.0529C138.465 30.7259 138.961 31.301 139.597 31.7057C140.233 32.1104 140.981 32.3264 141.746 32.3264C142.254 32.3267 142.758 32.2316 143.227 32.0467C143.697 31.8617 144.124 31.5905 144.483 31.2484C144.842 30.9064 145.127 30.5003 145.322 30.0534C145.516 29.6064 145.616 29.1273 145.616 28.6435H145.615Z" fill="white"/>
</svg>