<svg xmlns="http://www.w3.org/2000/svg" width="138" height="32" viewBox="0 0 138 32" fill="none">
  <g clip-path="url(#clip0_219_3083)">
    <path d="M43.4175 5.63403C42.9141 3.75307 41.4358 2.27492 39.5548 1.77141C36.1491 0.85791 22.486 0.85791 22.486 0.85791C22.486 0.85791 8.82308 0.85791 5.41722 1.77141C3.53628 2.27492 2.05812 3.75307 1.55462 5.63403C0.641114 9.03988 0.641113 16.1501 0.641113 16.1501C0.641113 16.1501 0.641114 23.2604 1.55462 26.6662C2.05812 28.5472 3.53628 30.0253 5.41722 30.5287C8.82308 31.4423 22.486 31.4423 22.486 31.4423C22.486 31.4423 36.1491 31.4423 39.5548 30.5287C41.4358 30.0253 42.9141 28.5472 43.4175 26.6662C44.3311 23.2604 44.3311 16.1501 44.3311 16.1501C44.3311 16.1501 44.3274 9.03988 43.4175 5.63403Z" fill="#FF0000"/>
    <path d="M18.1128 22.7037L29.4633 16.151L18.1128 9.59814V22.7037Z" fill="white"/>
    <path d="M53.5555 20.7441L48.6499 3.02783H52.9297L54.6489 11.0587C55.0876 13.0368 55.4077 14.7235 55.6163 16.119H55.7421C55.886 15.1192 56.2098 13.4432 56.7097 11.0875L58.4898 3.02783H62.7696L57.8029 20.7441V29.2425H53.552V20.7441H53.5555Z" fill="white"/>
    <path d="M64.0576 28.6805C63.1945 28.0979 62.5794 27.1915 62.2126 25.9615C61.8494 24.7316 61.666 23.0988 61.666 21.056V18.2758C61.666 16.2151 61.8746 14.5572 62.2918 13.3092C62.7089 12.0612 63.3599 11.1477 64.2446 10.5759C65.1294 10.004 66.291 9.71631 67.7297 9.71631C69.1466 9.71631 70.2795 10.0076 71.1354 10.5903C71.9878 11.1729 72.6135 12.0864 73.0091 13.3236C73.4048 14.5643 73.6026 16.2151 73.6026 18.2758V21.056C73.6026 23.0988 73.4084 24.7388 73.0237 25.9759C72.6388 27.2167 72.013 28.1231 71.1498 28.6949C70.2867 29.2668 69.1142 29.5544 67.6361 29.5544C66.1111 29.558 64.9208 29.2631 64.0576 28.6805ZM68.8985 25.6811C69.1358 25.0553 69.2581 24.0375 69.2581 22.6205V16.6539C69.2581 15.2801 69.1395 14.273 68.8985 13.6401C68.6575 13.0035 68.2368 12.687 67.6324 12.687C67.0499 12.687 66.6363 13.0035 66.399 13.6401C66.1579 14.2766 66.0393 15.2801 66.0393 16.6539V22.6205C66.0393 24.0375 66.1543 25.0588 66.3846 25.6811C66.6147 26.3068 67.0282 26.6197 67.6324 26.6197C68.2368 26.6197 68.6575 26.3068 68.8985 25.6811Z" fill="white"/>
    <path d="M87.5243 29.2458H84.1508L83.7768 26.9009H83.6833C82.7661 28.6704 81.3923 29.555 79.5581 29.555C78.2885 29.555 77.3499 29.1379 76.7457 28.3072C76.1415 27.4727 75.8394 26.1709 75.8394 24.4014V10.091H80.1516V24.1496C80.1516 25.0056 80.245 25.6133 80.4321 25.9767C80.6191 26.3399 80.932 26.5232 81.3707 26.5232C81.7447 26.5232 82.1044 26.4082 82.4497 26.1781C82.795 25.9478 83.0467 25.6564 83.2157 25.3041V10.0874H87.5243V29.2458Z" fill="white"/>
    <path d="M99.2383 6.49776H94.9584V29.2454H90.7398V6.49776H86.46V3.03076H99.2383V6.49776Z" fill="white"/>
    <path d="M109.639 29.2458H106.266L105.892 26.9009H105.798C104.881 28.6704 103.507 29.555 101.673 29.555C100.403 29.555 99.4647 29.1379 98.8605 28.3072C98.2563 27.4727 97.9541 26.1709 97.9541 24.4014V10.091H102.266V24.1496C102.266 25.0056 102.36 25.6133 102.547 25.9767C102.734 26.3399 103.047 26.5232 103.486 26.5232C103.859 26.5232 104.219 26.4082 104.564 26.1781C104.91 25.9478 105.161 25.6564 105.33 25.3041V10.0874H109.639V29.2458Z" fill="white"/>
    <path d="M123.91 13.1516C123.648 11.9432 123.227 11.0692 122.644 10.5261C122.062 9.98309 121.26 9.71335 120.238 9.71335C119.447 9.71335 118.706 9.93633 118.019 10.3859C117.332 10.8354 116.8 11.4217 116.426 12.1518H116.394V2.06006H112.24V29.2422H115.8L116.239 27.4296H116.333C116.667 28.0769 117.167 28.584 117.832 28.9617C118.498 29.3358 119.239 29.5228 120.051 29.5228C121.508 29.5228 122.583 28.8502 123.27 27.5086C123.957 26.1635 124.302 24.0668 124.302 21.2113V18.1795C124.302 16.0395 124.169 14.36 123.91 13.1516ZM119.958 20.9666C119.958 22.3621 119.9 23.4554 119.785 24.2467C119.67 25.0379 119.479 25.6026 119.206 25.9334C118.936 26.2678 118.569 26.4333 118.113 26.4333C117.757 26.4333 117.429 26.3506 117.127 26.1816C116.825 26.0161 116.581 25.7644 116.394 25.4335V14.5614C116.537 14.0399 116.789 13.6155 117.145 13.281C117.498 12.9466 117.886 12.7811 118.3 12.7811C118.739 12.7811 119.077 12.9538 119.314 13.2954C119.555 13.6407 119.72 14.2161 119.814 15.0289C119.907 15.8417 119.954 16.9962 119.954 18.4959V20.9666H119.958Z" fill="white"/>
    <path d="M130.42 22.0703C130.42 23.3003 130.456 24.221 130.528 24.8361C130.599 25.4509 130.75 25.897 130.981 26.1812C131.211 26.4616 131.563 26.6018 132.042 26.6018C132.685 26.6018 133.131 26.3501 133.369 25.8502C133.61 25.3503 133.739 24.516 133.761 23.3507L137.48 23.57C137.501 23.7355 137.512 23.9656 137.512 24.2569C137.512 26.0264 137.026 27.3499 136.059 28.2239C135.091 29.0978 133.721 29.5366 131.952 29.5366C129.826 29.5366 128.337 28.8712 127.485 27.537C126.629 26.2027 126.205 24.1419 126.205 21.351V18.0063C126.205 15.1327 126.647 13.0324 127.532 11.7089C128.416 10.3854 129.931 9.72363 132.078 9.72363C133.556 9.72363 134.692 9.99337 135.483 10.5364C136.275 11.0795 136.832 11.9211 137.156 13.0684C137.48 14.2156 137.641 15.7981 137.641 17.8192V21.0992H130.42V22.0703ZM130.966 13.0432C130.747 13.3129 130.603 13.7553 130.528 14.3703C130.456 14.9853 130.42 15.9168 130.42 17.1684V18.5422H133.574V17.1684C133.574 15.9383 133.531 15.0069 133.448 14.3703C133.365 13.7337 133.214 13.2877 132.995 13.0252C132.775 12.7663 132.437 12.6332 131.98 12.6332C131.52 12.6368 131.182 12.7734 130.966 13.0432Z" fill="white"/>
  </g>
  <defs>
    <clipPath id="clip0_219_3083">
      <rect width="137" height="30.5844" fill="white" transform="translate(0.641113 0.85791)"/>
    </clipPath>
  </defs>
</svg>