<svg width="18" height="19" viewBox="0 0 18 19" fill="none" xmlns="http://www.w3.org/2000/svg">
<g clip-path="url(#clip0_334_4)">
<path d="M17.7188 9.68945C17.7188 14.0488 14.5195 17.6699 10.3359 18.3027V12.2207H12.375L12.7617 9.68945H10.3359V8.07227C10.3359 7.36914 10.6875 6.70117 11.7773 6.70117H12.8672V4.55664C12.8672 4.55664 11.8828 4.38086 10.8984 4.38086C8.92969 4.38086 7.62891 5.61133 7.62891 7.79102V9.68945H5.41406V12.2207H7.62891V18.3027C3.44531 17.6699 0.28125 14.0488 0.28125 9.68945C0.28125 4.87305 4.18359 0.970703 9 0.970703C13.8164 0.970703 17.7188 4.87305 17.7188 9.68945Z" fill="white"/>
</g>
<defs>
<clipPath id="clip0_334_4">
<rect width="18" height="19" fill="white"/>
</clipPath>
</defs>
</svg>
