<svg width="17" height="17" viewBox="0 0 17 17" fill="none" xmlns="http://www.w3.org/2000/svg">
<path d="M8.875 4.64648C11.0898 4.64648 12.918 6.47461 12.918 8.68945C12.918 10.9395 11.0898 12.7324 8.875 12.7324C6.625 12.7324 4.83203 10.9395 4.83203 8.68945C4.83203 6.47461 6.625 4.64648 8.875 4.64648ZM8.875 11.3262C10.3164 11.3262 11.4766 10.166 11.4766 8.68945C11.4766 7.24805 10.3164 6.08789 8.875 6.08789C7.39844 6.08789 6.23828 7.24805 6.23828 8.68945C6.23828 10.166 7.43359 11.3262 8.875 11.3262ZM14.0078 4.50586C14.0078 5.0332 13.5859 5.45508 13.0586 5.45508C12.5312 5.45508 12.1094 5.0332 12.1094 4.50586C12.1094 3.97852 12.5312 3.55664 13.0586 3.55664C13.5859 3.55664 14.0078 3.97852 14.0078 4.50586ZM16.6797 5.45508C16.75 6.75586 16.75 10.6582 16.6797 11.959C16.6094 13.2246 16.3281 14.3145 15.4141 15.2637C14.5 16.1777 13.375 16.459 12.1094 16.5293C10.8086 16.5996 6.90625 16.5996 5.60547 16.5293C4.33984 16.459 3.25 16.1777 2.30078 15.2637C1.38672 14.3145 1.10547 13.2246 1.03516 11.959C0.964843 10.6582 0.964843 6.75586 1.03516 5.45508C1.10547 4.18945 1.38672 3.06445 2.30078 2.15039C3.25 1.23633 4.33984 0.955078 5.60547 0.884766C6.90625 0.814453 10.8086 0.814453 12.1094 0.884766C13.375 0.955078 14.5 1.23633 15.4141 2.15039C16.3281 3.06445 16.6094 4.18945 16.6797 5.45508ZM14.9922 13.3301C15.4141 12.3105 15.3086 9.84961 15.3086 8.68945C15.3086 7.56445 15.4141 5.10352 14.9922 4.04883C14.7109 3.38086 14.1836 2.81836 13.5156 2.57227C12.4609 2.15039 10 2.25586 8.875 2.25586C7.71484 2.25586 5.25391 2.15039 4.23438 2.57227C3.53125 2.85352 3.00391 3.38086 2.72266 4.04883C2.30078 5.10352 2.40625 7.56445 2.40625 8.68945C2.40625 9.84961 2.30078 12.3105 2.72266 13.3301C3.00391 14.0332 3.53125 14.5605 4.23438 14.8418C5.25391 15.2637 7.71484 15.1582 8.875 15.1582C10 15.1582 12.4609 15.2637 13.5156 14.8418C14.1836 14.5605 14.7461 14.0332 14.9922 13.3301Z" fill="white"/>
</svg>
