<svg width="16" height="17" viewBox="0 0 16 17" fill="none" xmlns="http://www.w3.org/2000/svg">
<path d="M3.51562 16.4395H0.246094V5.92773H3.51562V16.4395ZM1.86328 4.52148C0.84375 4.52148 0 3.64258 0 2.58789C0 1.56836 0.84375 0.724609 1.86328 0.724609C2.91797 0.724609 3.76172 1.56836 3.76172 2.58789C3.76172 3.64258 2.91797 4.52148 1.86328 4.52148ZM15.7148 16.4395H12.4805V11.3418C12.4805 10.1113 12.4453 8.56445 10.7578 8.56445C9.07031 8.56445 8.82422 9.86523 8.82422 11.2363V16.4395H5.55469V5.92773H8.68359V7.36914H8.71875C9.17578 6.56055 10.2305 5.68164 11.8125 5.68164C15.1172 5.68164 15.75 7.86133 15.75 10.6738V16.4395H15.7148Z" fill="white"/>
</svg>
