<svg width="80" height="17" viewBox="0 0 80 17" fill="none" xmlns="http://www.w3.org/2000/svg">
<g clip-path="url(#clip0_102_1091)">
<path d="M2.6211 10.9293C2.6211 11.8559 2.82447 12.5673 3.0903 12.9977C3.43882 13.5614 3.95865 13.8002 4.48861 13.8002C5.17215 13.8002 5.79747 13.6306 7.00253 11.9639C7.96793 10.6281 9.10548 8.75297 9.87089 7.57744L11.1671 5.58588C12.0675 4.20276 13.1097 2.66521 14.3046 1.62301C15.2802 0.772379 16.3325 0.299805 17.3916 0.299805C19.1696 0.299805 20.8633 1.33018 22.1595 3.26267C23.5781 5.37913 24.2667 8.04495 24.2667 10.796C24.2667 12.4315 23.9443 13.6331 23.3958 14.5825C22.8658 15.5007 21.8329 16.4179 20.0954 16.4179V13.8002C21.5831 13.8002 21.9544 12.4331 21.9544 10.8686C21.9544 8.63905 21.4346 6.16478 20.2894 4.39685C19.4768 3.14284 18.4236 2.3766 17.265 2.3766C16.0118 2.3766 15.0034 3.32175 13.87 5.00698C13.2675 5.90234 12.6489 6.99348 11.9544 8.2247L11.1899 9.57913C9.65401 12.3023 9.26498 12.9226 8.49705 13.9462C7.15106 15.7386 6.00169 16.4179 4.48861 16.4179C2.69367 16.4179 1.55865 15.6407 0.855696 14.4694C0.281857 13.515 0 12.2627 0 10.8357L2.6211 10.9293Z" fill="#0081FB"/>
<path d="M2.06641 3.44748C3.26809 1.59516 5.00227 0.299805 6.9913 0.299805C8.1432 0.299805 9.28835 0.640733 10.4841 1.6171C11.7921 2.68462 13.1862 4.44242 14.9255 7.33947L15.5491 8.37913C17.0546 10.8871 17.9111 12.1774 18.4124 12.7859C19.0571 13.5673 19.5086 13.8002 20.0951 13.8002C21.5829 13.8002 21.9542 12.4331 21.9542 10.8686L24.2664 10.796C24.2664 12.4315 23.944 13.6331 23.3955 14.5825C22.8656 15.5007 21.8327 16.4179 20.0951 16.4179C19.0149 16.4179 18.058 16.1834 16.9997 15.185C16.1862 14.4188 15.2352 13.0576 14.5035 11.834L12.3272 8.19854C11.2352 6.37407 10.2335 5.01373 9.65375 4.3977C9.03012 3.73525 8.22843 2.93525 6.94911 2.93525C5.91366 2.93525 5.03434 3.66183 4.29847 4.77322L2.06641 3.44748Z" fill="url(#paint0_linear_102_1091)"/>
<path d="M6.94937 2.93525C5.91392 2.93525 5.0346 3.66183 4.29873 4.77322C3.25823 6.34369 2.6211 8.68293 2.6211 10.9293C2.6211 11.8559 2.82447 12.5673 3.0903 12.9977L0.855696 14.4694C0.281857 13.515 0 12.2627 0 10.8357C0 8.24073 0.712236 5.53609 2.06667 3.44748C3.26835 1.59516 5.00253 0.299805 6.99156 0.299805L6.94937 2.93525Z" fill="url(#paint1_linear_102_1091)"/>
<path d="M29.3613 0.807617H32.3934L37.5487 10.1342L42.7048 0.807617H45.671V16.1325H43.1976V4.38736L38.6761 12.5207H36.3554L31.8347 4.38736V16.1325H29.3613V0.807617ZM53.4212 6.52154C51.6474 6.52154 50.5791 7.85656 50.3234 9.50973H56.3436C56.2196 7.80677 55.2373 6.52154 53.4212 6.52154ZM47.871 10.4515C47.871 6.97302 50.1191 4.44137 53.4643 4.44137C56.7546 4.44137 58.7191 6.94095 58.7191 10.6372V11.3165H50.3234C50.6212 13.1148 51.8145 14.3266 53.7385 14.3266C55.2736 14.3266 56.2331 13.8582 57.1428 13.0017L58.4567 14.611C57.2187 15.7494 55.644 16.4059 53.6508 16.4059C50.0297 16.4059 47.871 13.7654 47.871 10.4515ZM61.7183 6.74095H59.4415V4.71563H61.7183V1.36627H64.1048V4.71563H67.5639V6.74095H64.1048V11.8743C64.1048 13.627 64.6651 14.2498 66.0423 14.2498C66.671 14.2498 67.0314 14.1958 67.5639 14.1072V16.1106C66.9006 16.2979 66.2677 16.384 65.5824 16.384C63.0061 16.384 61.7183 14.9764 61.7183 12.1587V6.74095ZM77.6128 8.71057C77.1335 7.50044 76.0643 6.6093 74.493 6.6093C72.4508 6.6093 71.1436 8.05825 71.1436 10.4186C71.1436 12.7199 72.347 14.2388 74.3951 14.2388C76.0052 14.2388 77.1546 13.3021 77.6128 12.1367V8.71057ZM79.9993 16.1325H77.6567V14.5342C77.0018 15.4751 75.8103 16.4059 73.8803 16.4059C70.7765 16.4059 68.7023 13.8076 68.7023 10.4186C68.7023 6.99749 70.8263 4.44137 74.012 4.44137C75.5866 4.44137 76.8221 5.07091 77.6567 6.1823V4.71563H79.9993V16.1325Z" fill="white"/>
</g>
<defs>
<linearGradient id="paint0_linear_102_1091" x1="5.14742" y1="10.1732" x2="21.8563" y2="11.0171" gradientUnits="userSpaceOnUse">
<stop stop-color="#0064E1"/>
<stop offset="0.4" stop-color="#0064E1"/>
<stop offset="0.83" stop-color="#0073EE"/>
<stop offset="1" stop-color="#0082FB"/>
</linearGradient>
<linearGradient id="paint1_linear_102_1091" x1="3.79747" y1="12.0298" x2="3.79747" y2="5.86943" gradientUnits="userSpaceOnUse">
<stop stop-color="#0082FB"/>
<stop offset="1" stop-color="#0064E0"/>
</linearGradient>
<clipPath id="clip0_102_1091">
<rect width="80" height="16.1181" fill="white" transform="translate(0 0.299805)"/>
</clipPath>
</defs>
</svg>
