<svg width="413" height="82" viewBox="0 0 413 82" fill="none" xmlns="http://www.w3.org/2000/svg">
<g clip-path="url(#clip0_1437_2220)">
<path d="M0 6.64892C0.0146358 2.70954 2.72226 -0.00701725 6.68124 0.00762728C15.1188 0.0442386 23.5563 0.124784 31.9865 0.168717C33.9258 0.183362 35.5503 0.886299 36.9115 2.25556C46.7687 12.126 56.6259 21.9891 66.4831 31.8522C71.0202 36.392 75.5792 40.9245 80.1017 45.4789C82.1873 47.5731 82.2824 50.3775 80.2993 52.3765C71.0055 61.7124 61.6899 71.019 52.3742 80.3329C51.3423 81.3653 50.091 81.8559 48.6347 81.7461C47.1346 81.6289 46.0442 80.7796 45.0197 79.7544C30.7864 65.4833 16.5458 51.2342 2.2905 36.9851C0.87083 35.5646 0.131722 33.8951 0.146358 31.8668C0.168312 27.7004 0.146358 23.5341 0.146358 19.3677M18.1777 13.8321C18.1996 11.4304 16.2457 9.468 13.8162 9.46067C11.5184 9.45335 9.63035 11.2912 9.57912 13.5904C9.5279 15.9848 11.4891 18.0058 13.8894 18.0277C16.2311 18.0497 18.1484 16.1752 18.1777 13.8321Z" fill="url(#paint0_linear_1437_2220)"/>
<path d="M98.0374 19.5787C98.0374 23.7451 98.0228 27.9114 98.0374 32.0778C98.052 34.1061 97.3129 35.7756 95.8932 37.1961C81.638 51.4452 67.3974 65.6943 53.1567 79.9581C52.1322 80.9832 51.0419 81.8326 49.5417 81.9498C48.0854 82.0596 46.8341 81.569 45.8023 80.5366C36.4866 71.2226 27.1709 61.916 17.8772 52.5802C15.8867 50.5812 15.9892 47.7768 18.0748 45.6826C22.6045 41.1281 27.1563 36.603 31.6934 32.0558C41.5506 22.1927 51.4151 12.3297 61.265 2.45924C62.6334 1.08997 64.2507 0.387036 66.1899 0.372391C74.6274 0.321136 83.065 0.247913 91.4952 0.211302C95.4542 0.196657 98.1618 2.91322 98.1764 6.8526M84.2797 18.2241C86.68 18.2021 88.6485 16.1812 88.59 13.7868C88.5388 11.4876 86.6581 9.6497 84.3529 9.65703C81.9161 9.66435 79.9622 11.6267 79.9915 14.0284C80.0134 16.3642 81.9307 18.2387 84.2797 18.2241Z" fill="url(#paint1_linear_1437_2220)"/>
<path d="M134.319 22.6887H128.311V14.0997C128.311 13.2869 127.887 12.8403 127.126 12.8403H122.355C121.564 12.8403 121.096 13.3089 121.096 14.0997V22.6887H116.522C115.71 22.6887 115.183 23.1866 115.183 23.9481V27.2798C115.183 28.0706 115.732 28.6198 116.522 28.6198H121.096V51.6849C121.096 57.5647 124.206 60.6766 130.082 60.6766C131.356 60.6766 135.512 60.5302 135.512 58.6557V55.4705C135.512 55.0458 135.402 54.731 135.176 54.5186C134.905 54.2623 134.473 54.1598 133.858 54.2111C133.134 54.2843 132.139 54.3649 131.531 54.3649C129.314 54.3649 128.326 53.2592 128.326 50.7769V28.6198H134.334C135.102 28.6198 135.593 28.0926 135.593 27.2798V23.9481C135.593 23.1573 135.124 22.6887 134.334 22.6887H134.319Z" fill="#FFFFFF"/>
<path d="M174.385 22.6793H169.994C169.233 22.6793 168.809 23.126 168.809 23.9388L168.677 28.9252C165.808 24.3049 161.03 21.7714 155.146 21.7714C144.542 21.7714 136.844 30.0455 136.844 41.4463C136.844 52.8471 144.542 61.1212 155.146 61.1212C161.052 61.1212 165.713 58.6976 168.677 54.0918L168.809 58.9465C168.809 59.7593 169.226 60.2059 169.994 60.2059H174.385C175.175 60.2059 175.644 59.7373 175.644 58.9465V23.9388C175.644 23.1479 175.175 22.6793 174.385 22.6793ZM156.361 54.436C149.028 54.436 143.913 49.0981 143.913 41.4463C143.913 33.7945 149.036 28.4566 156.361 28.4566C163.686 28.4566 168.509 33.8311 168.509 41.5195C168.509 49.2079 163.628 54.4287 156.361 54.4287V54.436Z" fill="#FFFFFF"/>
<path d="M216.833 22.6794H212.442C211.652 22.6794 211.184 23.1481 211.184 23.9389L211.118 28.4128C208.279 24.0634 203.698 21.7715 197.829 21.7715C187.188 21.7715 179.753 29.5477 179.753 40.6922C179.753 51.8367 187.218 59.6862 197.902 59.6862C203.639 59.6862 208.169 57.4456 211.03 53.1913V58.1924C211.03 68.5461 202.058 69.6664 198.202 69.6664C194.345 69.6664 190.862 68.6779 187.84 66.8107C187.115 66.452 186.398 66.6643 186.061 67.3526L184.62 70.0106C184.254 70.7355 184.488 71.519 185.213 72.0096C188.535 74.36 193.555 75.7586 198.656 75.7586C203.756 75.7586 208.571 74.3454 211.938 71.7899C215.918 68.7658 218.019 64.1454 218.019 58.4341V23.9389C218.019 23.1261 217.602 22.6794 216.833 22.6794V22.6794ZM198.956 53.0669C191.806 53.0669 186.808 47.9779 186.808 40.6849C186.808 33.3919 191.799 28.3835 198.956 28.3835C206.112 28.3835 210.876 33.3919 210.876 40.8387C210.876 48.2854 206.083 53.0669 198.956 53.0669V53.0669Z" fill="#FFFFFF"/>
<path d="M239.928 39.2131L235.837 37.5436C232.734 36.3428 230.363 35.1859 230.363 32.1252C230.363 29.4818 232.485 27.7757 235.764 27.7757C238.34 27.7757 240.608 28.8375 242.891 31.1293C243.316 31.554 243.689 31.7371 244.04 31.7298C244.37 31.7078 244.692 31.5101 244.999 31.122L246.821 28.9986C247.333 28.3835 247.363 27.6952 246.902 27.1534C244.114 23.6826 240.052 21.7715 235.464 21.7715C229.492 21.7715 223.448 25.3814 223.448 32.2789C223.448 36.848 226.111 40.0845 231.827 42.4642L236.298 44.3607C239.657 45.7373 241.479 47.0333 241.479 49.9329C241.479 53.0302 239.181 54.8096 235.164 54.8096C231.9 54.8096 229.185 53.5867 226.368 50.8482C226.016 50.4967 225.629 50.321 225.248 50.343C224.882 50.3649 224.538 50.57 224.245 50.9434L222.723 53.0815C222.365 53.6819 222.035 54.4801 222.745 55.2855C224.524 57.4675 228.541 61.114 235.471 61.114C241.808 61.114 248.621 57.6579 248.621 50.0794C248.709 43.5845 243.704 40.7654 239.935 39.2058L239.928 39.2131Z" fill="#FFFFFF"/>
<path d="M272.047 21.7769C266.902 21.7769 262.724 23.981 260.206 27.9936V6.8981C260.206 6.08533 259.789 5.63867 259.021 5.63867H254.249C253.459 5.63867 252.991 6.1073 252.991 6.8981V58.9594C252.991 59.7502 253.459 60.2189 254.249 60.2189H259.021C259.782 60.2189 260.206 59.7722 260.206 58.9594V38.1935C260.206 32.3723 264.085 28.4622 269.851 28.4622C275.618 28.4622 278.516 32.0062 278.516 38.1935V58.9594C278.516 59.7722 278.933 60.2189 279.701 60.2189H284.472C285.263 60.2189 285.731 59.7502 285.731 58.9594V37.1317C285.731 27.6567 280.491 21.7769 272.047 21.7769V21.7769Z" fill="#FFFFFF"/>
<path d="M309.001 21.7715C297.966 21.7715 289.638 30.2287 289.638 41.4464C289.638 52.6641 297.966 61.1213 309.001 61.1213C320.037 61.1213 328.291 52.6641 328.291 41.4464C328.291 30.2287 320 21.7715 309.001 21.7715V21.7715ZM309.001 54.3556C301.764 54.3556 296.707 49.0469 296.707 41.4464C296.707 33.8459 301.764 28.4567 309.001 28.4567C316.239 28.4567 321.295 33.9191 321.295 41.4464C321.295 48.9737 316.122 54.3556 309.001 54.3556Z" fill="#FFFFFF"/>
<path d="M352.698 21.7715C346.815 21.7715 342.043 24.305 339.167 28.9253L339.036 23.9389C339.036 23.1261 338.611 22.6794 337.85 22.6794H333.459C332.669 22.6794 332.201 23.1481 332.201 23.9389V73.3568C332.201 74.1476 332.669 74.6163 333.459 74.6163H338.231C339.021 74.6163 339.489 74.1476 339.489 73.3568V54.4947C342.343 58.7782 347.005 61.1287 352.698 61.1287C363.302 61.1287 371 52.8545 371 41.4537C371 30.053 363.302 21.7788 352.698 21.7788V21.7715ZM351.483 28.464C358.816 28.464 363.931 33.802 363.931 41.4537C363.931 49.1055 358.809 54.4434 351.483 54.4434C344.158 54.4434 339.336 49.2519 339.336 41.5343C339.336 33.8166 344.334 28.4714 351.483 28.4714V28.464Z" fill="#FFFFFF"/>
</g>
<defs>
<linearGradient id="paint0_linear_1437_2220" x1="51.4302" y1="16.7683" x2="16.7373" y2="51.4405" gradientUnits="userSpaceOnUse">
<stop stop-color="#4100FB"/>
<stop offset="0.11" stop-color="#4209FB"/>
<stop offset="0.29" stop-color="#4822FB"/>
<stop offset="0.52" stop-color="#514CFC"/>
<stop offset="0.78" stop-color="#5D85FD"/>
<stop offset="0.99" stop-color="#68B8FE"/>
</linearGradient>
<linearGradient id="paint1_linear_1437_2220" x1="57.3206" y1="81.9644" x2="57.3206" y2="0.21862" gradientUnits="userSpaceOnUse">
<stop stop-color="#4100FB"/>
<stop offset="0.11" stop-color="#4209FB"/>
<stop offset="0.29" stop-color="#4822FB"/>
<stop offset="0.52" stop-color="#514CFC"/>
<stop offset="0.78" stop-color="#5D85FD"/>
<stop offset="0.99" stop-color="#68B8FE"/>
</linearGradient>
<clipPath id="clip0_1437_2220">
<rect width="413" height="81.9581" fill="white"/>
</clipPath>
</defs>
</svg>
