<svg width="78" height="23" viewBox="0 0 78 23" fill="none" xmlns="http://www.w3.org/2000/svg">
<path d="M7.20284 16.1609L7.27745 16.3715C7.26562 16.3474 7.23832 16.2737 7.20284 16.1609ZM3.73814 14.6628C3.86916 13.5315 4.31408 12.8977 5.1525 12.2481C6.35213 11.3683 7.85065 11.866 7.85065 11.866V8.91307C8.21496 8.90373 8.57939 8.92641 8.93974 8.98085V12.7799C8.93974 12.7799 7.44168 12.2822 6.24204 13.1621C5.40407 13.8117 4.95825 14.4458 4.82768 15.5772C4.82359 16.1923 4.93414 16.9957 5.4432 17.6904C5.31733 17.623 5.18905 17.5463 5.05833 17.4602C3.93694 16.6745 3.73268 15.4963 3.73814 14.6628ZM15.1272 3.45399C14.3019 2.51047 13.9898 1.55786 13.877 0.888672H14.9152C14.9152 0.888672 14.7082 2.64331 16.2167 4.36884L16.2376 4.39204C15.8311 4.1252 15.4582 3.81024 15.1272 3.45399Z" fill="#EE1D52"/>
<path d="M20.1274 6.12777V9.85041C20.1274 9.85041 18.8026 9.79673 17.8223 9.53606C16.4534 9.17212 15.5736 8.61438 15.5736 8.61438C15.5736 8.61438 14.9658 8.21587 14.9167 8.18857V15.8791C14.9167 16.3067 14.8043 17.3758 14.4618 18.2679C14.0146 19.4343 13.3245 20.1999 13.1975 20.356C13.1975 20.356 12.3582 21.3914 10.8774 22.0883C9.54268 22.717 8.37079 22.7011 8.0205 22.717C8.0205 22.717 5.99473 22.8007 4.17185 21.5642C3.7775 21.2922 3.40953 20.9838 3.07275 20.643L3.08185 20.6494C4.90519 21.8859 6.93051 21.8022 6.93051 21.8022C7.28125 21.7862 8.45313 21.8022 9.78742 21.1735C11.2673 20.4765 12.1075 19.4411 12.1075 19.4411C12.2331 19.2851 12.9264 18.5194 13.3718 17.3526C13.7134 16.4609 13.8267 15.3918 13.8267 14.9637V7.27372C13.8758 7.30147 14.4836 7.69998 14.4836 7.69998C14.4836 7.69998 15.3634 8.25863 16.7323 8.62166C17.7131 8.88188 19.0374 8.93601 19.0374 8.93601V6.01904C19.4905 6.12504 19.8767 6.15415 20.1274 6.12777Z" fill="#EE1D52"/>
<path d="M18.75 5.95751V8.89889C18.75 8.89889 17.4241 8.84429 16.4421 8.58186C15.0715 8.21481 14.1906 7.65232 14.1906 7.65232C14.1906 7.65232 13.5821 7.25041 13.5329 7.22243V14.9766C13.5329 15.4084 13.4204 16.4866 13.0775 17.3858C12.6297 18.5626 11.9388 19.3348 11.8117 19.4922C11.8117 19.4922 10.9713 20.5364 9.48872 21.2393C8.1528 21.8733 6.97949 21.8573 6.62831 21.8733C6.62831 21.8733 4.60051 21.9578 2.77495 20.7107L2.76584 20.7043C2.57321 20.5081 2.39179 20.301 2.22245 20.084C1.63989 19.3371 1.2828 18.4548 1.19307 18.2029C1.1928 18.2019 1.1928 18.2008 1.19307 18.1997C1.04823 17.7616 0.744876 16.7109 0.786325 15.6928C0.859657 13.8962 1.46089 12.7941 1.61985 12.5175C2.04104 11.7644 2.58876 11.0907 3.23863 10.5263C3.81177 10.0387 4.46172 9.65107 5.16167 9.37925C5.59811 9.19656 6.0529 9.06196 6.51809 8.9778C6.85834 8.91653 7.20281 8.88202 7.54838 8.87457V11.8508C7.54838 11.8508 6.04803 11.3489 4.84693 12.2362C4.00748 12.8914 3.56202 13.5305 3.43084 14.6715C3.42538 15.5121 3.62989 16.7004 4.75173 17.4936C4.8823 17.5808 5.01075 17.6582 5.13707 17.7258C5.33321 17.9926 5.57157 18.2251 5.84261 18.414C6.93849 19.143 7.85674 19.1939 9.03097 18.7205C9.81485 18.408 10.402 17.6946 10.6803 16.9036C10.852 16.4099 10.8497 15.9126 10.8497 15.3992V0.782227H13.5826C13.6955 1.45712 14.008 2.41785 14.8342 3.36941C15.1657 3.7287 15.539 4.04635 15.9461 4.31546C16.0663 4.44622 16.6812 5.09221 17.4706 5.48953C17.8778 5.69455 18.3071 5.85158 18.75 5.95751Z" fill="white"/>
<path d="M5.43819 9.20641C4.74217 9.47282 4.09586 9.8528 3.52593 10.3306C2.87966 10.8851 2.33531 11.5469 1.91714 12.2864C1.75907 12.5562 1.16121 13.6377 1.08829 15.3987C1.04707 16.3965 1.34872 17.4263 1.49275 17.8558C1.49248 17.8568 1.49248 17.8579 1.49275 17.8589C1.58334 18.1036 1.93707 18.9683 2.51636 19.7027C2.68475 19.9153 2.86515 20.1183 3.0567 20.3107C2.44262 19.889 1.89496 19.3792 1.43161 18.7979C0.857296 18.0726 0.503108 17.2163 0.410711 16.9636L0.408446 16.9582V16.9546C0.264416 16.5265 -0.0381381 15.4958 0.00398398 14.4966C0.076905 12.7356 0.674767 11.6554 0.832838 11.3843C1.25088 10.6447 1.79525 9.98295 2.44163 9.42855C3.01144 8.95055 3.65778 8.57056 4.35388 8.30432C4.78788 8.12526 5.24012 7.99333 5.70269 7.91084C6.39971 7.7898 7.11165 7.77932 7.81197 7.87981V8.71174C7.46842 8.718 7.12588 8.75078 6.78745 8.80978C6.3246 8.89325 5.8722 9.02623 5.43819 9.20641Z" fill="#69C9D0"/>
<path d="M13.7061 0.903063H11.0393V15.1964C11.0393 15.6984 11.0415 16.1834 10.874 16.6674C10.6046 17.4399 10.0317 18.1375 9.26816 18.4471C8.12191 18.9118 7.22588 18.8602 6.15697 18.1474C5.89249 17.9627 5.65989 17.7354 5.46851 17.4745C6.3792 17.9648 7.19433 17.9563 8.20413 17.5472C8.96326 17.2354 9.54106 16.5378 9.80773 15.7648C9.97574 15.2821 9.97351 14.7958 9.97351 14.2942V0H13.6558C13.6558 0 13.6141 0.355752 13.7061 0.903063ZM18.7489 5.1685V5.96345C18.3165 5.8599 17.8974 5.70636 17.4999 5.50586C16.7297 5.11736 16.1297 4.48571 16.0123 4.35785C16.1484 4.4481 16.2897 4.53004 16.4355 4.60324C17.3719 5.07519 18.292 5.2165 18.7489 5.1685Z" fill="#69C9D0"/>
<path d="M59.3771 12.5278C59.377 12.7376 59.4081 12.9463 59.4695 13.1471C59.473 13.1613 59.4773 13.1753 59.4824 13.189C59.6303 13.6639 59.9269 14.0792 60.3287 14.3741C60.7305 14.669 61.2164 14.828 61.7154 14.8278V17.1855C60.5643 17.1855 59.7394 17.2256 58.4847 16.486C57.0521 15.6424 56.2471 14.0998 56.2471 12.4978C56.2471 10.8465 57.1473 9.19112 58.6737 8.39403C59.7801 7.81567 60.622 7.81152 61.7154 7.81152V10.1678C61.0953 10.1679 60.5006 10.4134 60.0621 10.8504C59.6236 11.2873 59.3772 11.8799 59.3771 12.4978V12.5278Z" fill="#69C9D0"/>
<path d="M64.0516 12.5278C64.0519 12.7376 64.0207 12.9464 63.9591 13.1471C63.9559 13.1614 63.9516 13.1754 63.9462 13.189C63.7985 13.664 63.502 14.0793 63.1002 14.3742C62.6984 14.6692 62.2124 14.8281 61.7134 14.8278V17.1855C62.8649 17.1855 63.6893 17.2256 64.9439 16.486C66.3763 15.6424 67.1818 14.0998 67.1818 12.4978C67.1818 10.8465 66.2811 9.19112 64.7553 8.39403C63.6491 7.81567 62.8067 7.81152 61.7134 7.81152V10.1678C62.3335 10.1678 62.9283 10.4133 63.3669 10.8502C63.8055 11.2872 64.0519 11.8798 64.052 12.4978L64.0516 12.5278Z" fill="#EE1D52"/>
<path d="M25.7795 6.24854H34.392L33.5961 8.50475H31.3443V17.1385H28.5699V8.50475H25.7795V6.24854ZM48.6055 6.24854V8.50475H51.3959V17.1385H54.1684V8.50475H56.4202L57.218 6.24854H48.6055ZM36.2656 8.81975C36.5309 8.81975 36.7903 8.74485 37.0109 8.60453C37.2315 8.4642 37.4034 8.26475 37.5049 8.03139C37.6065 7.79804 37.633 7.54126 37.5813 7.29353C37.5295 7.0458 37.4017 6.81825 37.2141 6.63964C37.0265 6.46104 36.7875 6.33941 36.5273 6.29014C36.2671 6.24086 35.9974 6.26615 35.7523 6.36281C35.5071 6.45947 35.2976 6.62316 35.1502 6.83317C35.0028 7.04318 34.9242 7.29009 34.9242 7.54268C34.9242 7.88138 35.0655 8.20621 35.3171 8.44571C35.5686 8.68521 35.9098 8.81975 36.2656 8.81975ZM34.9219 17.1385H37.641V9.72233H34.9219V17.1385ZM47.4217 8.75588H44.2425L41.5022 11.3673V6.25685H38.8014L38.7922 17.1385H41.5201V14.303L42.3698 13.5711L45.0169 17.1385H47.9327L44.0982 11.9212L47.4217 8.75588ZM73.5031 11.9212L76.828 8.75588H73.6488L70.9085 11.3673V6.25685H68.2072L68.1985 17.1385H70.9264V14.303L71.778 13.5711L74.4254 17.1385H77.3385L73.5031 11.9212ZM66.5133 12.7324C66.5133 15.1916 64.3911 17.1853 61.7731 17.1853C59.155 17.1853 57.0332 15.1916 57.0332 12.7324C57.0332 10.2731 59.1554 8.27944 61.7731 8.27944C64.3907 8.27944 66.5142 10.2736 66.5142 12.7324H66.5133ZM64.0984 12.7324C64.0984 12.2945 63.962 11.8665 63.7065 11.5025C63.451 11.1384 63.0878 10.8547 62.6629 10.6871C62.238 10.5195 61.7705 10.4757 61.3194 10.5611C60.8683 10.6465 60.454 10.8574 60.1288 11.167C59.8036 11.4766 59.5821 11.871 59.4924 12.3005C59.4027 12.7299 59.4487 13.175 59.6247 13.5795C59.8007 13.9841 60.0988 14.3298 60.4812 14.5731C60.8636 14.8163 61.3131 14.9461 61.7731 14.9461C62.0785 14.9463 62.381 14.8892 62.6633 14.778C62.9455 14.6668 63.202 14.5038 63.418 14.2982C63.6341 14.0926 63.8054 13.8485 63.9223 13.5798C64.0392 13.3111 64.0994 13.0232 64.0993 12.7324H64.0984Z" fill="white"/>
</svg>
