<svg width="24" height="24" viewBox="0 0 24 24" fill="none" xmlns="http://www.w3.org/2000/svg">
<path fill-rule="evenodd" clip-rule="evenodd" d="M5.45999 2.05461C5.52582 2.17423 5.66879 2.2243 5.78503 2.29595L6.83023 2.94024C6.88196 2.97354 6.92452 3.0193 6.95399 3.07331C6.98345 3.12731 6.9989 3.18786 6.9989 3.24939C6.9989 3.31092 6.98345 3.37147 6.95399 3.42547C6.92452 3.47948 6.88196 3.52524 6.83023 3.55853L5.61037 4.22694C5.54639 4.25292 5.49329 4.30011 5.45999 4.36062L4.80828 5.58047C4.77498 5.63221 4.72924 5.67477 4.67523 5.70424C4.62122 5.7337 4.56068 5.74915 4.49915 5.74915C4.43761 5.74915 4.37707 5.7337 4.32306 5.70424C4.26906 5.67477 4.2233 5.63221 4.19 5.58047L3.5216 4.36062C3.49083 4.30412 3.44441 4.2577 3.38792 4.22694L2.16806 3.55853C2.11633 3.52524 2.07377 3.47948 2.0443 3.42547C2.01483 3.37147 1.99939 3.31092 1.99939 3.24939C1.99939 3.18786 2.01483 3.12731 2.0443 3.07331C2.07377 3.0193 2.11633 2.97354 2.16806 2.94024L3.38792 2.27183C3.44441 2.24108 3.49083 2.19466 3.5216 2.13816L4.19 0.918305C4.2233 0.866572 4.26906 0.824014 4.32306 0.794542C4.37707 0.76507 4.43761 0.749634 4.49915 0.749634C4.56068 0.749634 4.62122 0.76507 4.67523 0.794542C4.72924 0.824014 4.77498 0.866572 4.80828 0.918305L5.45999 2.05461ZM8.78253 12.9031L12.4777 14.8598C12.6477 14.9556 12.7883 15.096 12.8842 15.2658L14.8428 18.9576C14.9266 19.1203 15.0537 19.2568 15.2102 19.3521C15.3667 19.4474 15.5463 19.4978 15.7295 19.4978C15.9128 19.4978 16.0925 19.4474 16.2489 19.3521C16.4054 19.2568 16.5325 19.1203 16.6165 18.9576L18.6119 15.2658C18.649 15.1745 18.7041 15.0914 18.774 15.0216C18.8437 14.9519 18.9269 14.8969 19.0184 14.8598L22.7135 12.9031C22.8752 12.8137 23.0101 12.6826 23.104 12.5235C23.1978 12.3645 23.2473 12.1831 23.2473 11.9985C23.2473 11.8139 23.1978 11.6326 23.104 11.4736C23.0101 11.3145 22.8752 11.1835 22.7135 11.094L19.0184 9.13735C18.8484 9.0415 18.7078 8.90107 18.6119 8.73125L16.6165 5.03941C16.5325 4.87671 16.4054 4.74023 16.2489 4.64495C16.0925 4.54968 15.9128 4.49927 15.7295 4.49927C15.5463 4.49927 15.3667 4.54968 15.2102 4.64495C15.0537 4.74023 14.9266 4.87671 14.8428 5.03941L13.0189 8.47739C12.9296 8.64569 12.8157 8.79971 12.681 8.93436C12.5462 9.06893 12.3922 9.18266 12.2239 9.27175L8.78253 11.094C8.62082 11.1835 8.48602 11.3145 8.39215 11.4736C8.29829 11.6326 8.24878 11.8139 8.24878 11.9985C8.24878 12.1831 8.29829 12.3645 8.39215 12.5235C8.48602 12.6826 8.62082 12.8137 8.78253 12.9031ZM6.42797 18.0677C6.25362 17.9602 6.03916 17.8851 5.9404 17.7056L4.96285 16.0011C4.9129 15.9235 4.84429 15.8598 4.76327 15.8155C4.68225 15.7713 4.59144 15.7482 4.49915 15.7482C4.40685 15.7482 4.31604 15.7713 4.23502 15.8155C4.154 15.8598 4.08537 15.9235 4.03543 16.0011L3.03283 17.831C2.98667 17.9157 2.91704 17.9853 2.8323 18.0314L1.00252 19.0341C0.92492 19.0841 0.861076 19.1527 0.816868 19.2337C0.772672 19.3147 0.749512 19.4056 0.749512 19.4978C0.749512 19.59 0.772672 19.6809 0.816868 19.7619C0.861076 19.8429 0.92492 19.9115 1.00252 19.9615L2.8323 20.9642C2.91704 21.0103 2.98667 21.0799 3.03283 21.1646L4.03543 22.9945C4.08537 23.0721 4.154 23.1358 4.23502 23.1801C4.31604 23.2243 4.40685 23.2474 4.49915 23.2474C4.59144 23.2474 4.68225 23.2243 4.76327 23.1801C4.84429 23.1358 4.9129 23.0721 4.96285 22.9945L5.9404 21.1646C5.99035 21.0739 6.07 21.003 6.166 20.9642L7.99577 19.9615C8.07337 19.9115 8.1372 19.8429 8.18141 19.7619C8.22561 19.6809 8.24878 19.59 8.24878 19.4978C8.24878 19.4056 8.22561 19.3147 8.18141 19.2337C8.1372 19.1527 8.07337 19.0841 7.99577 19.0341L6.42797 18.0677Z" fill="#8E9DFE"/>
</svg>
