<svg width="1640" height="1522" viewBox="0 0 1640 1522" fill="none" xmlns="http://www.w3.org/2000/svg">
<g opacity="0.4" filter="url(#filter0_f_236_3955)">
<path d="M1208.06 764.322C1189.01 656.834 1240.16 525.952 1159.01 453.129C1075.86 378.517 948.775 425.171 837.131 431.472C836.862 431.488 836.591 431.502 836.322 431.517L894.284 812.144L1208.06 764.322Z" fill="#0A7CFF"/>
<path d="M1208.06 764.322L894.284 812.144L1271.8 1089.84C1299.5 1020.18 1272.57 951.169 1244.88 880.233C1230.07 842.278 1215.04 803.772 1208.06 764.322Z" fill="#0A7CFF"/>
<path d="M894.284 812.144L836.322 431.517C801.247 433.439 764.512 431.732 727.805 430.025C626.349 425.308 525.124 420.602 459.86 492.588L894.284 812.144Z" fill="#FF469D"/>
<path d="M459.86 492.588C368.288 593.591 394.297 752.086 426.535 884.356L894.285 812.144L459.86 492.588Z" fill="#FF7847"/>
<path d="M974.041 1128.03C1098.98 1111.18 1201.69 1005.66 1248.34 888.38L898.61 631.123L974.041 1128.03Z" fill="#00DFDF"/>
<path d="M894.284 812.144L426.534 884.356C459.869 1021.13 535.036 1099.08 642.8 1190.58L642.83 1190.61L894.284 812.144Z" fill="#7733FF"/>
<path d="M974.041 1128.03L898.61 631.123L665.659 981.734C756.942 1059.24 856.614 1143.87 974.041 1128.03Z" fill="#00DFDF"/>
</g>
<defs>
<filter id="filter0_f_236_3955" x="146.728" y="161.295" width="1386.7" height="1279.31" filterUnits="userSpaceOnUse" color-interpolation-filters="sRGB">
<feFlood flood-opacity="0" result="BackgroundImageFix"/>
<feBlend mode="normal" in="SourceGraphic" in2="BackgroundImageFix" result="shape"/>
<feGaussianBlur stdDeviation="125" result="effect1_foregroundBlur_236_3955"/>
</filter>
</defs>
</svg>
