<svg width="152" height="25" viewBox="0 0 152 25" fill="none" xmlns="http://www.w3.org/2000/svg">
<path d="M13.1585 0.690954C13.409 0.0886925 14.2623 0.0886925 14.5128 0.690954L17.543 7.97646C17.6486 8.23036 17.8874 8.40385 18.1615 8.42582L26.0268 9.05638C26.6769 9.1085 26.9406 9.91993 26.4452 10.3443L20.4527 15.4775C20.2438 15.6565 20.1526 15.9372 20.2164 16.2045L22.0472 23.8798C22.1985 24.5142 21.5083 25.0158 20.9516 24.6757L14.2178 20.5628C13.9832 20.4195 13.688 20.4195 13.4534 20.5628L6.71956 24.6757C6.1629 25.0158 5.47265 24.5142 5.62401 23.8798L7.45483 16.2045C7.51863 15.9372 7.42742 15.6565 7.21859 15.4775L1.22604 10.3443C0.730654 9.91993 0.994312 9.1085 1.6445 9.05638L9.50981 8.42582C9.78393 8.40385 10.0227 8.23036 10.1283 7.97646L13.1585 0.690954Z" fill="#F9BD14"/>
<path d="M44.3579 0.690954C44.6084 0.0886925 45.4617 0.0886925 45.7122 0.690954L48.7424 7.97646C48.848 8.23036 49.0867 8.40385 49.3609 8.42582L57.2262 9.05638C57.8763 9.1085 58.14 9.91993 57.6446 10.3443L51.652 15.4775C51.4432 15.6565 51.352 15.9372 51.4158 16.2045L53.2466 23.8798C53.3979 24.5142 52.7077 25.0158 52.151 24.6757L45.4172 20.5628C45.1826 20.4195 44.8875 20.4195 44.6528 20.5628L37.919 24.6757C37.3623 25.0158 36.6721 24.5142 36.8234 23.8798L38.6542 16.2045C38.718 15.9372 38.6268 15.6565 38.418 15.4775L32.4254 10.3443C31.93 9.91993 32.1937 9.1085 32.8439 9.05638L40.7092 8.42582C40.9833 8.40385 41.222 8.23036 41.3276 7.97646L44.3579 0.690954Z" fill="#F9BD14"/>
<path d="M75.5572 0.690954C75.8077 0.0886925 76.661 0.0886925 76.9115 0.690954L79.9417 7.97646C80.0473 8.23036 80.2861 8.40385 80.5602 8.42582L88.4255 9.05638C89.0757 9.1085 89.3394 9.91993 88.8439 10.3443L82.8514 15.4775C82.6426 15.6565 82.5513 15.9372 82.6151 16.2045L84.4459 23.8798C84.5973 24.5142 83.9071 25.0158 83.3503 24.6757L76.6166 20.5628C76.3819 20.4195 76.0868 20.4195 75.8522 20.5628L69.1184 24.6757C68.5616 25.0158 67.8714 24.5142 68.0228 23.8798L69.8536 16.2045C69.9174 15.9372 69.8262 15.6565 69.6173 15.4775L63.6248 10.3443C63.1294 9.91993 63.3931 9.1085 64.0432 9.05638L71.9085 8.42582C72.1826 8.40385 72.4214 8.23036 72.527 7.97646L75.5572 0.690954Z" fill="#F9BD14"/>
<path d="M106.757 0.690954C107.007 0.0886925 107.86 0.0886925 108.111 0.690954L111.141 7.97646C111.247 8.23036 111.485 8.40385 111.76 8.42582L119.625 9.05638C120.275 9.1085 120.539 9.91993 120.043 10.3443L114.051 15.4775C113.842 15.6565 113.751 15.9372 113.814 16.2045L115.645 23.8798C115.797 24.5142 115.106 25.0158 114.55 24.6757L107.816 20.5628C107.581 20.4195 107.286 20.4195 107.052 20.5628L100.318 24.6757C99.761 25.0158 99.0708 24.5142 99.2222 23.8798L101.053 16.2045C101.117 15.9372 101.026 15.6565 100.817 15.4775L94.8241 10.3443C94.3287 9.91993 94.5924 9.1085 95.2426 9.05638L103.108 8.42582C103.382 8.40385 103.621 8.23036 103.726 7.97646L106.757 0.690954Z" fill="#F9BD14"/>
<path d="M137.956 0.690954C138.206 0.0886925 139.06 0.0886925 139.311 0.690954L142.341 7.97646C142.446 8.23036 142.685 8.40385 142.958 8.42582L150.824 9.05638C151.475 9.1085 151.738 9.91993 151.243 10.3443L145.251 15.4775C145.041 15.6565 144.95 15.9372 145.014 16.2045L146.845 23.8798C146.996 24.5142 146.305 25.0158 145.749 24.6757L139.016 20.5628C138.781 20.4195 138.485 20.4195 138.25 20.5628L131.517 24.6757C130.961 25.0158 130.27 24.5142 130.421 23.8798L132.252 16.2045C132.316 15.9372 132.225 15.6565 132.016 15.4775L126.023 10.3443C125.528 9.91993 125.792 9.1085 126.442 9.05638L134.308 8.42582C134.581 8.40385 134.82 8.23036 134.925 7.97646L137.956 0.690954Z" fill="#F9BD14"/>
</svg>
